<mxfile host="app.diagrams.net" agent="Mozilla/5.0 (Windows NT 10.0; Win64; x64) AppleWebKit/537.36 (KHTML, like Gecko) Chrome/129.0.0.0 Safari/537.36" version="24.7.17">
  <diagram name="Page-1" id="LCup9DaKh3PWHlHVmW9g">
    <mxGraphModel dx="1134" dy="770" grid="1" gridSize="10" guides="1" tooltips="1" connect="1" arrows="1" fold="1" page="1" pageScale="1" pageWidth="850" pageHeight="1100" math="0" shadow="0">
      <root>
        <mxCell id="0" />
        <mxCell id="1" parent="0" />
        <mxCell id="_sGQ6MRhefH2sYLgST7J-1" value="Guest" style="shape=umlActor;verticalLabelPosition=bottom;verticalAlign=top;html=1;" vertex="1" parent="1">
          <mxGeometry x="180" y="170" width="40" height="70" as="geometry" />
        </mxCell>
        <mxCell id="_sGQ6MRhefH2sYLgST7J-2" value="&lt;div&gt;&lt;br&gt;&lt;/div&gt;" style="html=1;whiteSpace=wrap;" vertex="1" parent="1">
          <mxGeometry x="250" y="160" width="350" height="440" as="geometry" />
        </mxCell>
        <mxCell id="_sGQ6MRhefH2sYLgST7J-3" value="Login" style="ellipse;whiteSpace=wrap;html=1;" vertex="1" parent="1">
          <mxGeometry x="290" y="195" width="65" height="30" as="geometry" />
        </mxCell>
        <mxCell id="_sGQ6MRhefH2sYLgST7J-4" value="Manipulasi data buku" style="ellipse;whiteSpace=wrap;html=1;" vertex="1" parent="1">
          <mxGeometry x="450" y="230" width="120" height="30" as="geometry" />
        </mxCell>
        <mxCell id="_sGQ6MRhefH2sYLgST7J-5" value="History Peminjaman" style="ellipse;whiteSpace=wrap;html=1;" vertex="1" parent="1">
          <mxGeometry x="262.5" y="260" width="120" height="30" as="geometry" />
        </mxCell>
        <mxCell id="_sGQ6MRhefH2sYLgST7J-6" value="Manipulasi data karyawan" style="ellipse;whiteSpace=wrap;html=1;" vertex="1" parent="1">
          <mxGeometry x="437.5" y="290" width="162.5" height="30" as="geometry" />
        </mxCell>
        <mxCell id="_sGQ6MRhefH2sYLgST7J-7" value="Pencarian buku" style="ellipse;whiteSpace=wrap;html=1;" vertex="1" parent="1">
          <mxGeometry x="262.5" y="320" width="100" height="30" as="geometry" />
        </mxCell>
        <mxCell id="_sGQ6MRhefH2sYLgST7J-8" value="Pemesanan Buku" style="ellipse;whiteSpace=wrap;html=1;" vertex="1" parent="1">
          <mxGeometry x="262.5" y="370" width="100" height="30" as="geometry" />
        </mxCell>
        <mxCell id="_sGQ6MRhefH2sYLgST7J-9" value="Pelaporan" style="ellipse;whiteSpace=wrap;html=1;" vertex="1" parent="1">
          <mxGeometry x="262.5" y="420" width="100" height="30" as="geometry" />
        </mxCell>
        <mxCell id="_sGQ6MRhefH2sYLgST7J-10" style="edgeStyle=orthogonalEdgeStyle;rounded=0;orthogonalLoop=1;jettySize=auto;html=1;exitX=0.5;exitY=1;exitDx=0;exitDy=0;" edge="1" parent="1" source="_sGQ6MRhefH2sYLgST7J-7" target="_sGQ6MRhefH2sYLgST7J-7">
          <mxGeometry relative="1" as="geometry" />
        </mxCell>
        <mxCell id="_sGQ6MRhefH2sYLgST7J-11" value="Peminjaman" style="ellipse;whiteSpace=wrap;html=1;" vertex="1" parent="1">
          <mxGeometry x="468.75" y="370" width="100" height="30" as="geometry" />
        </mxCell>
        <mxCell id="_sGQ6MRhefH2sYLgST7J-12" value="Pengembalian" style="ellipse;whiteSpace=wrap;html=1;" vertex="1" parent="1">
          <mxGeometry x="468.75" y="420" width="100" height="30" as="geometry" />
        </mxCell>
        <mxCell id="_sGQ6MRhefH2sYLgST7J-13" value="Pelapiran grafik" style="ellipse;whiteSpace=wrap;html=1;" vertex="1" parent="1">
          <mxGeometry x="470" y="470" width="100" height="30" as="geometry" />
        </mxCell>
        <mxCell id="_sGQ6MRhefH2sYLgST7J-14" value="Pendaftaran anggota" style="ellipse;whiteSpace=wrap;html=1;" vertex="1" parent="1">
          <mxGeometry x="470" y="520" width="100" height="30" as="geometry" />
        </mxCell>
        <mxCell id="_sGQ6MRhefH2sYLgST7J-15" value="Logout" style="ellipse;whiteSpace=wrap;html=1;" vertex="1" parent="1">
          <mxGeometry x="282.5" y="550" width="100" height="30" as="geometry" />
        </mxCell>
        <mxCell id="_sGQ6MRhefH2sYLgST7J-18" value="Anggota" style="shape=umlActor;verticalLabelPosition=bottom;verticalAlign=top;html=1;" vertex="1" parent="1">
          <mxGeometry x="180" y="410" width="40" height="70" as="geometry" />
        </mxCell>
        <mxCell id="_sGQ6MRhefH2sYLgST7J-19" value="Admin" style="shape=umlActor;verticalLabelPosition=bottom;verticalAlign=top;html=1;" vertex="1" parent="1">
          <mxGeometry x="640" y="170" width="40" height="70" as="geometry" />
        </mxCell>
        <mxCell id="_sGQ6MRhefH2sYLgST7J-20" value="Perpustakawan" style="shape=umlActor;verticalLabelPosition=bottom;verticalAlign=top;html=1;" vertex="1" parent="1">
          <mxGeometry x="630" y="410" width="40" height="70" as="geometry" />
        </mxCell>
        <mxCell id="_sGQ6MRhefH2sYLgST7J-22" value="" style="endArrow=none;html=1;rounded=0;entryX=0.5;entryY=0;entryDx=0;entryDy=0;exitX=0.5;exitY=0.5;exitDx=0;exitDy=0;exitPerimeter=0;" edge="1" parent="1" source="_sGQ6MRhefH2sYLgST7J-1" target="_sGQ6MRhefH2sYLgST7J-5">
          <mxGeometry width="50" height="50" relative="1" as="geometry">
            <mxPoint x="220" y="205" as="sourcePoint" />
            <mxPoint x="430" y="320" as="targetPoint" />
            <Array as="points">
              <mxPoint x="280" y="205" />
            </Array>
          </mxGeometry>
        </mxCell>
        <mxCell id="_sGQ6MRhefH2sYLgST7J-23" value="" style="endArrow=none;html=1;rounded=0;entryX=0.5;entryY=0;entryDx=0;entryDy=0;exitX=0.5;exitY=0.5;exitDx=0;exitDy=0;exitPerimeter=0;" edge="1" parent="1" source="_sGQ6MRhefH2sYLgST7J-1" target="_sGQ6MRhefH2sYLgST7J-7">
          <mxGeometry width="50" height="50" relative="1" as="geometry">
            <mxPoint x="220" y="210" as="sourcePoint" />
            <mxPoint x="333" y="270" as="targetPoint" />
            <Array as="points">
              <mxPoint x="240" y="270" />
            </Array>
          </mxGeometry>
        </mxCell>
        <mxCell id="_sGQ6MRhefH2sYLgST7J-25" value="" style="endArrow=none;html=1;rounded=0;exitX=0.5;exitY=0.5;exitDx=0;exitDy=0;exitPerimeter=0;entryX=0;entryY=0.5;entryDx=0;entryDy=0;" edge="1" parent="1" source="_sGQ6MRhefH2sYLgST7J-18" target="_sGQ6MRhefH2sYLgST7J-7">
          <mxGeometry width="50" height="50" relative="1" as="geometry">
            <mxPoint x="380" y="370" as="sourcePoint" />
            <mxPoint x="430" y="320" as="targetPoint" />
            <Array as="points">
              <mxPoint x="240" y="390" />
            </Array>
          </mxGeometry>
        </mxCell>
        <mxCell id="_sGQ6MRhefH2sYLgST7J-26" value="" style="endArrow=none;html=1;rounded=0;exitX=0.5;exitY=0.5;exitDx=0;exitDy=0;exitPerimeter=0;entryX=0;entryY=0.5;entryDx=0;entryDy=0;" edge="1" parent="1" source="_sGQ6MRhefH2sYLgST7J-18" target="_sGQ6MRhefH2sYLgST7J-8">
          <mxGeometry width="50" height="50" relative="1" as="geometry">
            <mxPoint x="210" y="455" as="sourcePoint" />
            <mxPoint x="273" y="345" as="targetPoint" />
            <Array as="points">
              <mxPoint x="240" y="430" />
            </Array>
          </mxGeometry>
        </mxCell>
        <mxCell id="_sGQ6MRhefH2sYLgST7J-27" value="" style="endArrow=none;html=1;rounded=0;exitX=0.5;exitY=0.5;exitDx=0;exitDy=0;exitPerimeter=0;entryX=0;entryY=0.5;entryDx=0;entryDy=0;" edge="1" parent="1" source="_sGQ6MRhefH2sYLgST7J-18" target="_sGQ6MRhefH2sYLgST7J-3">
          <mxGeometry width="50" height="50" relative="1" as="geometry">
            <mxPoint x="210" y="455" as="sourcePoint" />
            <mxPoint x="273" y="345" as="targetPoint" />
            <Array as="points">
              <mxPoint x="130" y="330" />
              <mxPoint x="130" y="220" />
              <mxPoint x="120" y="110" />
              <mxPoint x="290" y="100" />
            </Array>
          </mxGeometry>
        </mxCell>
        <mxCell id="_sGQ6MRhefH2sYLgST7J-29" value="" style="endArrow=none;html=1;rounded=0;exitX=0.5;exitY=0.5;exitDx=0;exitDy=0;exitPerimeter=0;entryX=0;entryY=0.5;entryDx=0;entryDy=0;" edge="1" parent="1" source="_sGQ6MRhefH2sYLgST7J-18" target="_sGQ6MRhefH2sYLgST7J-15">
          <mxGeometry width="50" height="50" relative="1" as="geometry">
            <mxPoint x="380" y="370" as="sourcePoint" />
            <mxPoint x="430" y="320" as="targetPoint" />
            <Array as="points">
              <mxPoint x="140" y="440" />
              <mxPoint x="140" y="570" />
            </Array>
          </mxGeometry>
        </mxCell>
        <mxCell id="_sGQ6MRhefH2sYLgST7J-30" value="" style="endArrow=none;html=1;rounded=0;entryX=0.5;entryY=0.5;entryDx=0;entryDy=0;entryPerimeter=0;exitX=1;exitY=0.5;exitDx=0;exitDy=0;" edge="1" parent="1" source="_sGQ6MRhefH2sYLgST7J-3" target="_sGQ6MRhefH2sYLgST7J-19">
          <mxGeometry width="50" height="50" relative="1" as="geometry">
            <mxPoint x="660" y="320" as="sourcePoint" />
            <mxPoint x="710" y="270" as="targetPoint" />
            <Array as="points">
              <mxPoint x="620" y="210" />
            </Array>
          </mxGeometry>
        </mxCell>
        <mxCell id="_sGQ6MRhefH2sYLgST7J-31" value="" style="endArrow=none;html=1;rounded=0;entryX=1;entryY=0.5;entryDx=0;entryDy=0;exitX=0.5;exitY=0.5;exitDx=0;exitDy=0;exitPerimeter=0;" edge="1" parent="1" source="_sGQ6MRhefH2sYLgST7J-19" target="_sGQ6MRhefH2sYLgST7J-4">
          <mxGeometry width="50" height="50" relative="1" as="geometry">
            <mxPoint x="380" y="370" as="sourcePoint" />
            <mxPoint x="430" y="320" as="targetPoint" />
          </mxGeometry>
        </mxCell>
        <mxCell id="_sGQ6MRhefH2sYLgST7J-32" value="" style="endArrow=none;html=1;rounded=0;entryX=1;entryY=0;entryDx=0;entryDy=0;exitX=0.5;exitY=0.5;exitDx=0;exitDy=0;exitPerimeter=0;" edge="1" parent="1" source="_sGQ6MRhefH2sYLgST7J-19" target="_sGQ6MRhefH2sYLgST7J-6">
          <mxGeometry width="50" height="50" relative="1" as="geometry">
            <mxPoint x="380" y="370" as="sourcePoint" />
            <mxPoint x="430" y="320" as="targetPoint" />
          </mxGeometry>
        </mxCell>
        <mxCell id="_sGQ6MRhefH2sYLgST7J-33" value="" style="endArrow=none;html=1;rounded=0;entryX=0.5;entryY=0.5;entryDx=0;entryDy=0;entryPerimeter=0;exitX=1;exitY=0.5;exitDx=0;exitDy=0;" edge="1" parent="1" source="_sGQ6MRhefH2sYLgST7J-15" target="_sGQ6MRhefH2sYLgST7J-19">
          <mxGeometry width="50" height="50" relative="1" as="geometry">
            <mxPoint x="660" y="350" as="sourcePoint" />
            <mxPoint x="710" y="300" as="targetPoint" />
            <Array as="points">
              <mxPoint x="780" y="590" />
            </Array>
          </mxGeometry>
        </mxCell>
        <mxCell id="_sGQ6MRhefH2sYLgST7J-34" value="" style="endArrow=none;html=1;rounded=0;exitX=1;exitY=0.5;exitDx=0;exitDy=0;entryX=0.5;entryY=0.5;entryDx=0;entryDy=0;entryPerimeter=0;" edge="1" parent="1" source="_sGQ6MRhefH2sYLgST7J-11" target="_sGQ6MRhefH2sYLgST7J-20">
          <mxGeometry width="50" height="50" relative="1" as="geometry">
            <mxPoint x="730" y="340" as="sourcePoint" />
            <mxPoint x="780" y="290" as="targetPoint" />
          </mxGeometry>
        </mxCell>
        <mxCell id="_sGQ6MRhefH2sYLgST7J-35" value="" style="endArrow=none;html=1;rounded=0;entryX=1;entryY=0.5;entryDx=0;entryDy=0;exitX=0.5;exitY=0.5;exitDx=0;exitDy=0;exitPerimeter=0;" edge="1" parent="1" source="_sGQ6MRhefH2sYLgST7J-20" target="_sGQ6MRhefH2sYLgST7J-12">
          <mxGeometry width="50" height="50" relative="1" as="geometry">
            <mxPoint x="380" y="410" as="sourcePoint" />
            <mxPoint x="430" y="360" as="targetPoint" />
          </mxGeometry>
        </mxCell>
        <mxCell id="_sGQ6MRhefH2sYLgST7J-36" value="" style="endArrow=none;html=1;rounded=0;entryX=1;entryY=0.5;entryDx=0;entryDy=0;exitX=0.5;exitY=0.5;exitDx=0;exitDy=0;exitPerimeter=0;" edge="1" parent="1" source="_sGQ6MRhefH2sYLgST7J-20" target="_sGQ6MRhefH2sYLgST7J-13">
          <mxGeometry width="50" height="50" relative="1" as="geometry">
            <mxPoint x="380" y="410" as="sourcePoint" />
            <mxPoint x="430" y="360" as="targetPoint" />
          </mxGeometry>
        </mxCell>
        <mxCell id="_sGQ6MRhefH2sYLgST7J-37" value="" style="endArrow=none;html=1;rounded=0;entryX=1;entryY=0.5;entryDx=0;entryDy=0;exitX=0.5;exitY=0.5;exitDx=0;exitDy=0;exitPerimeter=0;" edge="1" parent="1" source="_sGQ6MRhefH2sYLgST7J-20" target="_sGQ6MRhefH2sYLgST7J-14">
          <mxGeometry width="50" height="50" relative="1" as="geometry">
            <mxPoint x="380" y="410" as="sourcePoint" />
            <mxPoint x="430" y="360" as="targetPoint" />
          </mxGeometry>
        </mxCell>
        <mxCell id="_sGQ6MRhefH2sYLgST7J-39" value="Extend" style="html=1;verticalAlign=bottom;endArrow=open;dashed=1;endSize=8;curved=0;rounded=0;exitX=0.5;exitY=1;exitDx=0;exitDy=0;entryX=0.5;entryY=0;entryDx=0;entryDy=0;" edge="1" parent="1" source="_sGQ6MRhefH2sYLgST7J-3" target="_sGQ6MRhefH2sYLgST7J-5">
          <mxGeometry relative="1" as="geometry">
            <mxPoint x="450" y="390" as="sourcePoint" />
            <mxPoint x="370" y="390" as="targetPoint" />
          </mxGeometry>
        </mxCell>
        <mxCell id="_sGQ6MRhefH2sYLgST7J-41" value="Extend" style="html=1;verticalAlign=bottom;endArrow=open;dashed=1;endSize=8;curved=0;rounded=0;exitX=1;exitY=0.5;exitDx=0;exitDy=0;entryX=0;entryY=0.5;entryDx=0;entryDy=0;" edge="1" parent="1" source="_sGQ6MRhefH2sYLgST7J-3" target="_sGQ6MRhefH2sYLgST7J-4">
          <mxGeometry relative="1" as="geometry">
            <mxPoint x="450" y="390" as="sourcePoint" />
            <mxPoint x="370" y="390" as="targetPoint" />
          </mxGeometry>
        </mxCell>
        <mxCell id="_sGQ6MRhefH2sYLgST7J-42" value="Extend" style="html=1;verticalAlign=bottom;endArrow=open;dashed=1;endSize=8;curved=0;rounded=0;exitX=0;exitY=0.5;exitDx=0;exitDy=0;entryX=1;entryY=1;entryDx=0;entryDy=0;" edge="1" parent="1" source="_sGQ6MRhefH2sYLgST7J-11" target="_sGQ6MRhefH2sYLgST7J-5">
          <mxGeometry relative="1" as="geometry">
            <mxPoint x="365" y="220" as="sourcePoint" />
            <mxPoint x="460" y="255" as="targetPoint" />
          </mxGeometry>
        </mxCell>
        <mxCell id="_sGQ6MRhefH2sYLgST7J-43" value="Extend" style="html=1;verticalAlign=bottom;endArrow=open;dashed=1;endSize=8;curved=0;rounded=0;exitX=0;exitY=0.5;exitDx=0;exitDy=0;entryX=1;entryY=0.5;entryDx=0;entryDy=0;" edge="1" parent="1" source="_sGQ6MRhefH2sYLgST7J-11" target="_sGQ6MRhefH2sYLgST7J-7">
          <mxGeometry relative="1" as="geometry">
            <mxPoint x="479" y="395" as="sourcePoint" />
            <mxPoint x="375" y="296" as="targetPoint" />
          </mxGeometry>
        </mxCell>
        <mxCell id="_sGQ6MRhefH2sYLgST7J-44" value="Include" style="html=1;verticalAlign=bottom;endArrow=open;dashed=1;endSize=8;curved=0;rounded=0;exitX=0;exitY=0.5;exitDx=0;exitDy=0;entryX=1;entryY=0.5;entryDx=0;entryDy=0;" edge="1" parent="1" source="_sGQ6MRhefH2sYLgST7J-11" target="_sGQ6MRhefH2sYLgST7J-8">
          <mxGeometry relative="1" as="geometry">
            <mxPoint x="479" y="395" as="sourcePoint" />
            <mxPoint x="373" y="345" as="targetPoint" />
          </mxGeometry>
        </mxCell>
        <mxCell id="_sGQ6MRhefH2sYLgST7J-46" value="" style="endArrow=none;html=1;rounded=0;exitX=1;exitY=0.5;exitDx=0;exitDy=0;entryX=0.5;entryY=0.5;entryDx=0;entryDy=0;entryPerimeter=0;" edge="1" parent="1" source="_sGQ6MRhefH2sYLgST7J-9" target="_sGQ6MRhefH2sYLgST7J-20">
          <mxGeometry width="50" height="50" relative="1" as="geometry">
            <mxPoint x="380" y="410" as="sourcePoint" />
            <mxPoint x="650" y="450" as="targetPoint" />
          </mxGeometry>
        </mxCell>
        <mxCell id="_sGQ6MRhefH2sYLgST7J-47" value="Include" style="html=1;verticalAlign=bottom;endArrow=open;dashed=1;endSize=8;curved=0;rounded=0;exitX=1;exitY=0.5;exitDx=0;exitDy=0;" edge="1" parent="1" source="_sGQ6MRhefH2sYLgST7J-9">
          <mxGeometry relative="1" as="geometry">
            <mxPoint x="479" y="395" as="sourcePoint" />
            <mxPoint x="470" y="440" as="targetPoint" />
            <Array as="points">
              <mxPoint x="420" y="460" />
            </Array>
          </mxGeometry>
        </mxCell>
        <mxCell id="_sGQ6MRhefH2sYLgST7J-48" value="" style="endArrow=none;html=1;rounded=0;entryX=0.5;entryY=0.5;entryDx=0;entryDy=0;entryPerimeter=0;exitX=1;exitY=0.5;exitDx=0;exitDy=0;" edge="1" parent="1" source="_sGQ6MRhefH2sYLgST7J-15" target="_sGQ6MRhefH2sYLgST7J-20">
          <mxGeometry width="50" height="50" relative="1" as="geometry">
            <mxPoint x="380" y="410" as="sourcePoint" />
            <mxPoint x="430" y="360" as="targetPoint" />
            <Array as="points">
              <mxPoint x="650" y="565" />
            </Array>
          </mxGeometry>
        </mxCell>
      </root>
    </mxGraphModel>
  </diagram>
</mxfile>
